<svg width="33" height="34" viewBox="0 0 33 34" fill="none" xmlns="http://www.w3.org/2000/svg">
<path d="M16.5 0.0390625C7.38727 0.0390625 0 7.42634 0 16.5391C0 25.6518 7.38727 33.0391 16.5 33.0391C25.6127 33.0391 33 25.6518 33 16.5391C33 7.42634 25.6127 0.0390625 16.5 0.0390625ZM22.7948 8.44182L20.5127 8.44284C18.7231 8.44284 18.377 9.29324 18.377 10.541V13.2924H22.6446L22.6426 17.6018H18.3774V28.6608H13.9262V17.6018H10.2052V13.2924H13.9262V10.1143C13.9262 6.42604 16.1796 4.41734 19.4695 4.41734L22.7952 4.42241V8.44182H22.7948Z" fill="white"/>
</svg>
