<svg width="43" height="26" viewBox="0 0 43 26" fill="none" xmlns="http://www.w3.org/2000/svg">
<path d="M42.4756 13.8269L41.7812 12.2837H30.7095V9.82697H40.6757L38.7906 5.63778C38.5921 5.19698 38.1538 4.91344 37.6703 4.91344H30.7095V2.86617C30.7095 1.28575 29.4238 4.03488e-09 27.8433 4.03488e-09H2.86626C1.28575 -8.31675e-05 0 1.28567 0 2.86609V19.2445C0 20.8249 1.28575 22.1107 2.86626 22.1107H5.49465C6.03077 23.9989 7.76939 25.3865 9.82705 25.3865C11.8847 25.3865 13.6233 23.999 14.1595 22.1107H25.1488C25.6849 23.9989 27.4235 25.3865 29.4812 25.3865C31.5388 25.3865 33.2774 23.999 33.8136 22.1107H39.7176C41.298 22.1107 42.5838 20.825 42.5838 19.2445V14.331C42.5838 14.1572 42.547 13.9853 42.4756 13.8269ZM6.75611 14.331C6.75611 15.0094 6.2061 15.5593 5.52775 15.5593C4.8494 15.5593 4.29939 15.0093 4.29939 14.331V7.77962C4.29939 7.10119 4.8494 6.55126 5.52775 6.55126H7.98447C8.6629 6.55126 9.21283 7.10127 9.21283 7.77962C9.21283 8.45797 8.6629 9.00798 7.98447 9.00798H6.75611V9.82689H7.98447C8.6629 9.82689 9.21283 10.3769 9.21283 11.0552C9.21283 11.7336 8.6629 12.2837 7.98447 12.2837H6.75611V14.331ZM9.82705 22.9297C8.69816 22.9297 7.77978 22.0113 7.77978 20.8824C7.77978 19.7535 8.69816 18.8351 9.82705 18.8351C10.9559 18.8351 11.8743 19.7535 11.8743 20.8824C11.8743 22.0113 10.9559 22.9297 9.82705 22.9297ZM14.6996 13.594C15.1067 14.1367 14.9966 14.9066 14.4539 15.3137C14.233 15.4794 13.9742 15.5595 13.7178 15.5595C13.3443 15.5595 12.9755 15.3899 12.7341 15.068L12.4389 14.6744C12.2903 15.1855 11.8192 15.5594 11.2601 15.5594C10.5817 15.5594 10.0317 15.0094 10.0317 14.331V7.7797C10.0317 7.10127 10.5818 6.55134 11.2601 6.55134H12.079C13.6594 6.55134 14.9453 7.83709 14.9453 9.41752C14.9453 10.5004 14.3415 11.4447 13.4532 11.9321L14.6996 13.594ZM19.4493 9.82689C20.1278 9.82689 20.6777 10.3769 20.6777 11.0552C20.6777 11.7336 20.1277 12.2836 19.4493 12.2836H18.221V13.1025H19.4493C20.1278 13.1025 20.6777 13.6525 20.6777 14.3309C20.6777 15.0092 20.1277 15.5592 19.4493 15.5592H16.9926C16.3142 15.5592 15.7643 15.0092 15.7643 14.3309V7.77953C15.7643 7.1011 16.3143 6.55117 16.9926 6.55117H19.4493C20.1278 6.55117 20.6777 7.10119 20.6777 7.77953C20.6777 8.45788 20.1277 9.0079 19.4493 9.0079H18.221V9.8268H19.4493V9.82689ZM25.1818 9.82689C25.8602 9.82689 26.4101 10.3769 26.4101 11.0552C26.4101 11.7336 25.8601 12.2836 25.1818 12.2836H23.9534V13.1025H25.1818C25.8602 13.1025 26.4101 13.6525 26.4101 14.3309C26.4101 15.0092 25.8601 15.5592 25.1818 15.5592H22.725C22.0466 15.5592 21.4967 15.0092 21.4967 14.3309V7.77953C21.4967 7.1011 22.0467 6.55117 22.725 6.55117H25.1818C25.8602 6.55117 26.4101 7.10119 26.4101 7.77953C26.4101 8.45788 25.8601 9.0079 25.1818 9.0079H23.9534V9.8268H25.1818V9.82689ZM29.4812 22.9297C28.3523 22.9297 27.4339 22.0113 27.4339 20.8824C27.4339 19.7535 28.3523 18.8351 29.4812 18.8351C30.61 18.8351 31.5284 19.7535 31.5284 20.8824C31.5284 22.0113 30.61 22.9297 29.4812 22.9297Z" fill="#164E2A"/>
</svg>
