<svg width="43" height="43" viewBox="0 0 43 43" fill="none" xmlns="http://www.w3.org/2000/svg">
<path d="M7.2431 17.4485L21.2857 22.1033L35.3283 17.4485L21.2857 12.7937L7.2431 17.4485Z" fill="#164E2A"/>
<path d="M38.7582 18.9402L23.19 24.1008L27.0031 30.1578L42.5714 24.9971L38.7582 18.9402Z" fill="#164E2A"/>
<path d="M20.0381 27.7411L16.6385 33.1412L4.52563 29.126V37.4418L20.0381 42.5839V27.7411Z" fill="#164E2A"/>
<path d="M25.9329 33.1412L22.5333 27.7411V42.5839L38.0458 37.4418V29.126L25.9329 33.1412Z" fill="#164E2A"/>
<path d="M15.5683 30.1578L19.3814 24.1008L3.81317 18.9402L0 24.9971L15.5683 30.1578Z" fill="#164E2A"/>
<path d="M20.0381 0H22.5333V8.33163H20.0381V0Z" fill="#164E2A"/>
<path d="M8.30426 3.8125L10.4651 2.56493L14.6309 9.78012L12.4701 11.0277L8.30426 3.8125Z" fill="#164E2A"/>
<path d="M27.94 9.78101L32.1058 2.56582L34.2666 3.81339L30.1008 11.0286L27.94 9.78101Z" fill="#164E2A"/>
</svg>
