<svg width="40" height="41" viewBox="0 0 40 41" fill="none" xmlns="http://www.w3.org/2000/svg">
<path d="M14.4921 18.5442C15.4292 18.5442 16.1888 17.7846 16.1888 16.8475C16.1888 15.9105 15.4292 15.1508 14.4921 15.1508C13.555 15.1508 12.7954 15.9105 12.7954 16.8475C12.7954 17.7846 13.555 18.5442 14.4921 18.5442Z" fill="#164E2A"/>
<path d="M25.2711 25.4308C26.2082 25.4308 26.9678 24.6712 26.9678 23.7341C26.9678 22.7971 26.2082 22.0374 25.2711 22.0374C24.3341 22.0374 23.5744 22.7971 23.5744 23.7341C23.5744 24.6712 24.3341 25.4308 25.2711 25.4308Z" fill="#164E2A"/>
<path d="M39.2606 22.5364L38.6451 21.6964C37.9798 20.7815 37.9631 19.5423 38.6202 18.6107L39.219 17.7624C40.1339 16.4649 39.7097 14.6601 38.3041 13.9032L37.3892 13.4125C36.3912 12.8802 35.8422 11.7657 36.0335 10.6429L36.2082 9.6199C36.4744 8.05627 35.3016 6.60909 33.7131 6.54255L32.6734 6.50096C31.5423 6.45106 30.5609 5.68588 30.2448 4.59634L29.9537 3.59828C29.5129 2.06792 27.8328 1.27779 26.369 1.90989L25.4125 2.31744C24.3729 2.76656 23.1586 2.50041 22.4017 1.65206L21.7114 0.878567C20.6551 -0.302469 18.8004 -0.294151 17.7524 0.911836L17.0704 1.69365C16.3219 2.55032 15.1159 2.8331 14.0679 2.40061L13.1031 2.00138C11.631 1.39423 9.96758 2.21763 9.5434 3.74799L9.26893 4.75436C8.96952 5.85223 8.00473 6.63404 6.87359 6.69226L5.83395 6.75048C4.24537 6.84197 3.0976 8.30579 3.3887 9.86941L3.58 10.8924C3.78793 12.0069 3.25563 13.1297 2.26589 13.6787L1.35932 14.186C-0.0296464 14.9595 -0.42887 16.7727 0.510969 18.0535L1.12644 18.8935C1.79181 19.8084 1.80845 21.0477 1.15139 21.9792L0.552555 22.8275C-0.362333 24.125 0.0618423 25.9298 1.46744 26.6867L2.38233 27.1774C3.38039 27.7097 3.92932 28.8242 3.73803 29.947L3.56336 30.97C3.29722 32.5337 4.46993 33.9808 6.05851 34.0474L7.09816 34.089C8.22929 34.1389 9.21071 34.904 9.52677 35.9936L9.81787 36.9917C10.2587 38.522 11.9387 39.3121 13.4026 38.68L14.359 38.2725C15.3987 37.8234 16.613 38.0895 17.3698 38.9379L18.0602 39.7114C19.1248 40.8924 20.9795 40.8841 22.0191 39.6781L22.7011 38.8963C23.4497 38.0396 24.6557 37.7568 25.7036 38.1893L26.6684 38.5886C28.1406 39.1957 29.804 38.3723 30.2282 36.8419L30.5026 35.8356C30.8021 34.7377 31.7668 33.9559 32.898 33.8977L33.9376 33.8395C35.5262 33.748 36.674 32.2841 36.3829 30.7205L36.1916 29.6975C35.9836 28.583 36.5159 27.4602 37.5057 26.9113L38.4123 26.4039C39.8012 25.6387 40.2004 23.8256 39.2606 22.5364ZM10.3918 16.8475C10.3918 14.5852 12.2215 12.7555 14.4838 12.7555C16.7461 12.7555 18.5758 14.5852 18.5758 16.8475C18.5758 19.1098 16.7461 20.9395 14.4838 20.9395C12.2215 20.9395 10.3918 19.1015 10.3918 16.8475ZM15.2739 27.402C14.9246 27.8262 14.2925 27.8844 13.8683 27.535C13.4441 27.1857 13.3859 26.5536 13.7352 26.1294L24.4727 13.1963C24.822 12.7721 25.4541 12.7139 25.8783 13.0632C26.3025 13.4125 26.3607 14.0446 26.0114 14.4688L15.2739 27.402ZM25.2711 27.8261C23.0089 27.8261 21.1791 25.9964 21.1791 23.7341C21.1791 21.4718 23.0089 19.6421 25.2711 19.6421C27.5334 19.6421 29.3632 21.4718 29.3632 23.7341C29.3632 25.9964 27.5334 27.8261 25.2711 27.8261Z" fill="#164E2A"/>
</svg>
