<svg width="43" height="38" viewBox="0 0 43 38" fill="none" xmlns="http://www.w3.org/2000/svg">
<path d="M18.6304 10.6446V7.98309H2.66149C1.19501 7.98309 0 9.1781 0 10.6446V15.9676H19.192C18.8221 14.3414 18.6304 12.5901 18.6304 10.6446Z" fill="#164E2A"/>
<path d="M42.4747 21.2906C40.6596 24.0878 37.8916 26.4672 33.926 28.7454C33.3165 29.0941 32.6299 29.2751 31.9379 29.2751C31.2459 29.2751 30.5592 29.0941 29.9577 28.7507C25.9921 26.4672 23.2242 24.0852 21.4064 21.2906H0V34.598C0 36.0672 1.19501 37.2595 2.66149 37.2595H39.9223C41.3915 37.2595 42.5838 36.0672 42.5838 34.598V21.2906H42.4747ZM11.9767 29.2751H6.65372C5.91915 29.2751 5.32298 28.6789 5.32298 27.9443C5.32298 27.2097 5.91915 26.6136 6.65372 26.6136H11.9767C12.7113 26.6136 13.3074 27.2097 13.3074 27.9443C13.3074 28.6789 12.7113 29.2751 11.9767 29.2751Z" fill="#164E2A"/>
<path d="M41.7774 4.10003L32.4622 0.10779C32.1242 -0.0359301 31.7489 -0.0359301 31.4109 0.10779L22.0957 4.10003C21.6086 4.30762 21.2919 4.78935 21.2919 5.32165V10.6446C21.2919 17.9664 23.9987 22.2461 31.2752 26.4379C31.4801 26.555 31.709 26.6136 31.9379 26.6136C32.1668 26.6136 32.3957 26.555 32.6006 26.4379C39.8771 22.2567 42.5839 17.977 42.5839 10.6446V5.32165C42.5839 4.78935 42.2671 4.30762 41.7774 4.10003ZM36.9708 10.1469L31.6478 16.8007C31.3923 17.1147 31.009 17.2984 30.6071 17.2984C30.5885 17.2984 30.5672 17.2984 30.5513 17.2984C30.1281 17.2797 29.7368 17.0615 29.5 16.7075L26.8385 12.7153C26.4313 12.1031 26.5963 11.2781 27.2084 10.8709C27.8152 10.4663 28.643 10.626 29.0528 11.2408L30.7056 13.7186L34.8895 8.48616C35.3499 7.91394 36.1883 7.82345 36.7605 8.27856C37.3354 8.73368 37.4259 9.57205 36.9708 10.1469Z" fill="#164E2A"/>
</svg>
