<svg width="20" height="20" viewBox="0 0 20 20" fill="none" xmlns="http://www.w3.org/2000/svg">
<path d="M8.02175 20.0001C9.32751 20.0001 10.386 18.9415 10.386 17.6358C10.386 16.33 9.32751 15.2715 8.02175 15.2715C6.716 15.2715 5.65747 16.33 5.65747 17.6358C5.65747 18.9415 6.716 20.0001 8.02175 20.0001Z" fill="white"/>
<path d="M14.9216 15.2715C13.6159 15.2715 12.5573 16.33 12.5573 17.6358C12.5573 18.9415 13.6159 20.0001 14.9216 20.0001C16.2273 20.0001 17.2859 18.9415 17.2859 17.6358C17.2859 16.33 16.2273 15.2715 14.9216 15.2715Z" fill="white"/>
<path d="M18.9505 12.8589H6.62247L6.38122 11.4596H16.5139C16.812 11.4605 17.0801 11.2786 17.1894 11.0013L19.6019 4.92165C19.7485 4.54978 19.5658 4.12947 19.194 3.98293C19.1088 3.94933 19.018 3.93223 18.9264 3.93251H5.1267L4.54769 0.603207C4.48822 0.251174 4.18091 -0.0049229 3.82393 7.18073e-05H1.04951C0.649788 7.18073e-05 0.325745 0.324115 0.325745 0.723834C0.325745 1.12355 0.649788 1.4476 1.04951 1.4476H3.22079L5.29558 13.7033C5.35504 14.0553 5.66236 14.3114 6.01934 14.3064H18.9505C19.3503 14.3064 19.6743 13.9824 19.6743 13.5827C19.6743 13.183 19.3503 12.8589 18.9505 12.8589Z" fill="white"/>
</svg>
