<svg width="31" height="43" viewBox="0 0 31 43" fill="none" xmlns="http://www.w3.org/2000/svg">
<path d="M22.1187 29.8438L24.066 26.6839L27.5802 25.4854L27.9695 21.7945L30.6135 19.1917L29.3564 15.698L30.6135 12.2042L27.9696 9.60133L27.5803 5.9105L24.0661 4.712L22.1188 1.55206L18.4356 1.99678L15.3067 0L12.1779 1.99695L8.49473 1.55223L6.54743 4.71208L3.03327 5.91059L2.64394 9.60141L0 12.2043L1.25705 15.698L0 19.1918L2.64386 21.7946L3.03318 25.4855L6.54735 26.684L8.49464 29.8439L12.1779 29.3992L15.3067 31.3961L18.4356 29.3992L22.1187 29.8438ZM4.54192 15.698C4.54192 9.76235 9.37102 4.93324 15.3067 4.93324C21.2424 4.93324 26.0715 9.76235 26.0715 15.698C26.0715 21.6338 21.2424 26.4629 15.3067 26.4629C9.37102 26.4629 4.54192 21.6338 4.54192 15.698Z" fill="#164E2A"/>
<path d="M15.3067 7.42999C10.7477 7.42999 7.03864 11.139 7.03864 15.6981C7.03864 20.2571 10.7477 23.9662 15.3067 23.9662C19.8658 23.9662 23.5748 20.2571 23.5748 15.6981C23.5748 11.139 19.8658 7.42999 15.3067 7.42999Z" fill="#164E2A"/>
<path d="M11.5889 31.9851L7.20742 32.5141L4.89251 28.7575L4.10554 28.4892L0.71106 39.0991L6.82209 38.763L11.6032 42.5839L14.4167 33.79L11.5889 31.9851Z" fill="#164E2A"/>
<path d="M25.7209 28.7576L23.4059 32.5141L19.0245 31.9851L16.1967 33.79L19.0102 42.5839L23.7914 38.763L29.9024 39.0991L26.5079 28.4892L25.7209 28.7576Z" fill="#164E2A"/>
</svg>
