<svg width="33" height="34" viewBox="0 0 33 34" fill="none" xmlns="http://www.w3.org/2000/svg">
<path d="M16.4997 0.0390625C7.38728 0.0390625 0 7.42652 0 16.5389C0 25.6511 7.38728 33.0391 16.4997 33.0391C25.6122 33.0391 33 25.6511 33 16.5389C33 7.42652 25.6122 0.0390625 16.4997 0.0390625ZM16.5001 5.83458L26.2641 11.9231H6.73596L16.5001 5.83458ZM26.3858 21.6458H26.3848C26.3848 22.6224 25.5934 23.4137 24.6169 23.4137H8.38324C7.40664 23.4137 6.61529 22.6223 6.61529 21.6458V12.3106C6.61529 12.2073 6.62585 12.1068 6.64301 12.0082L15.972 17.8254C15.9835 17.8325 15.9957 17.8373 16.0075 17.8439C16.0198 17.8508 16.0323 17.8574 16.0449 17.8636C16.1108 17.8976 16.1786 17.925 16.248 17.943C16.2552 17.9449 16.2623 17.9458 16.2695 17.9475C16.3456 17.9654 16.4227 17.9766 16.4997 17.9766H16.5003C16.5008 17.9766 16.5014 17.9766 16.5014 17.9766C16.5784 17.9766 16.6555 17.9657 16.7316 17.9475C16.7388 17.9457 16.7459 17.9449 16.7531 17.943C16.8224 17.925 16.89 17.8976 16.9562 17.8636C16.9688 17.8574 16.9813 17.8508 16.9936 17.8439C17.0053 17.8373 17.0176 17.8325 17.0291 17.8254L26.3581 12.0082C26.3752 12.1068 26.3858 12.2071 26.3858 12.3106V21.6458Z" fill="white"/>
</svg>
