<svg width="15" height="11" viewBox="0 0 15 11" fill="none" xmlns="http://www.w3.org/2000/svg">
<path d="M13.1718 0H1.26923C1.07385 0 0.890943 0.0480334 0.725464 0.127205L7.19231 6.59405L8.64174 5.20108C8.64174 5.20108 8.64185 5.20094 8.64188 5.20088C8.64191 5.20083 8.64202 5.20077 8.64202 5.20077L13.7158 0.127318C13.5503 0.0480897 13.3672 0 13.1718 0Z" fill="#164E2A"/>
<path d="M14.314 0.725586L9.53934 5.49998L14.3138 10.2745C14.393 10.109 14.441 9.92607 14.441 9.73069V1.26916C14.441 1.07389 14.3931 0.891009 14.314 0.725586Z" fill="#164E2A"/>
<path d="M0.127205 0.725586C0.0480333 0.891065 0 1.07398 0 1.26935V9.73089C0 9.92616 0.0479769 10.1091 0.127092 10.2745L4.90174 5.50012L0.127205 0.725586Z" fill="#164E2A"/>
<path d="M8.94108 6.0982L7.49145 7.49134C7.40881 7.57398 7.30056 7.6153 7.19234 7.6153C7.08411 7.6153 6.97583 7.57398 6.89322 7.49134L5.5 6.09814L0.725266 10.8726C0.890774 10.9518 1.0738 10.9999 1.26923 10.9999H13.1718C13.3672 10.9999 13.5501 10.9519 13.7156 10.8727L8.94108 6.0982Z" fill="#164E2A"/>
</svg>
