<svg width="14" height="14" viewBox="0 0 14 14" fill="none" xmlns="http://www.w3.org/2000/svg">
<path d="M6.41664 10.4637C5.23989 10.3139 4.1643 9.72175 3.4085 8.80746C2.65269 7.89317 2.27339 6.7254 2.34767 5.54149C2.42195 4.35758 2.94425 3.24637 3.80841 2.43373C4.67256 1.62108 5.81373 1.16798 6.99997 1.16651C8.18766 1.16562 9.331 1.61762 10.197 2.4304C11.063 3.24318 11.5866 4.35558 11.661 5.54094C11.7353 6.7263 11.3549 7.89542 10.5973 8.81008C9.83967 9.72473 8.76179 10.3161 7.58331 10.4637V12.2498H6.41664V10.4637ZM2.91664 12.8332H11.0833V13.9998H2.91664V12.8332Z" fill="#164E2A"/>
</svg>
