<svg width="33" height="33" viewBox="0 0 33 33" fill="none" xmlns="http://www.w3.org/2000/svg">
<path d="M16.4775 0C7.37718 0 0 7.37751 0 16.4775C0 25.5774 7.37718 32.9549 16.4775 32.9549C25.5777 32.9549 32.9549 25.5774 32.9549 16.4775C32.9549 7.37751 25.5777 0 16.4775 0ZM16.501 5.01083C19.7106 5.0196 22.2866 7.64486 22.2701 10.8898C22.2539 14.0599 19.6357 16.6292 16.4316 16.6184C13.2602 16.6076 10.6592 13.9783 10.6781 10.8018C10.6959 7.59058 13.2983 5.00207 16.501 5.01083ZM23.0017 18.8988C22.292 19.6273 21.4377 20.1546 20.489 20.5224C19.5922 20.87 18.6095 21.045 17.6365 21.1616C17.7838 21.3214 17.853 21.4 17.9447 21.4917C19.2649 22.819 20.5915 24.1395 21.9073 25.4705C22.3557 25.9243 22.4491 26.4866 22.2023 27.0136C21.933 27.5901 21.3285 27.969 20.7355 27.9282C20.3599 27.9023 20.0669 27.7158 19.807 27.4539C18.8104 26.4512 17.795 25.4665 16.8193 24.445C16.5344 24.1476 16.3982 24.2042 16.1471 24.4625C15.1448 25.4948 14.1259 26.5106 13.1014 27.521C12.6412 27.9748 12.0937 28.057 11.5597 27.7974C10.9923 27.523 10.6315 26.9435 10.6592 26.3605C10.6787 25.9675 10.8723 25.6661 11.1426 25.397C12.4497 24.0926 13.7527 22.7842 15.0561 21.4768C15.1427 21.3902 15.223 21.2981 15.3487 21.1633C13.571 20.9775 11.9679 20.5399 10.5955 19.4668C10.4249 19.3333 10.2492 19.2045 10.0941 19.0548C9.49303 18.478 9.43269 17.8169 9.90771 17.1365C10.3146 16.554 10.997 16.3982 11.7067 16.733C11.8442 16.7974 11.975 16.879 12.1004 16.9653C14.6579 18.7228 18.1716 18.771 20.7392 17.0438C20.9934 16.8496 21.2654 16.6898 21.5807 16.6093C22.1929 16.4515 22.7647 16.677 23.093 17.2131C23.4689 17.8257 23.4646 18.4231 23.0017 18.8988Z" fill="white"/>
</svg>
