<svg width="33" height="34" viewBox="0 0 33 34" fill="none" xmlns="http://www.w3.org/2000/svg">
<path d="M16.5 0.0390625C7.38869 0.0390625 0 7.42776 0 16.5391C0 25.6504 7.38869 33.0391 16.5 33.0391C25.6113 33.0391 33 25.6504 33 16.5391C33 7.42776 25.6113 0.0390625 16.5 0.0390625ZM24.0337 12.904C24.041 13.0664 24.0445 13.2295 24.0445 13.3934C24.0445 18.3979 20.2353 24.1687 13.269 24.169H13.2693H13.269C11.1302 24.169 9.14001 23.542 7.46397 22.4677C7.76031 22.5027 8.06193 22.5201 8.36732 22.5201C10.1418 22.5201 11.7748 21.9149 13.0711 20.899C11.4132 20.8682 10.0154 19.7733 9.53302 18.2685C9.76389 18.3128 10.0013 18.337 10.2448 18.337C10.5905 18.337 10.9253 18.2904 11.2435 18.2035C9.51061 17.8566 8.20518 16.3251 8.20518 14.4912C8.20518 14.474 8.20518 14.4587 8.20569 14.4428C8.71603 14.7266 9.29963 14.8973 9.921 14.9164C8.9041 14.2379 8.23565 13.078 8.23565 11.764C8.23565 11.0701 8.42322 10.42 8.7485 9.86036C10.6161 12.152 13.4073 13.6591 16.5549 13.8174C16.4899 13.54 16.4564 13.2509 16.4564 12.9539C16.4564 10.8632 18.1526 9.16698 20.2441 9.16698C21.3335 9.16698 22.3174 9.62747 23.0085 10.3636C23.8713 10.1935 24.6815 9.87823 25.4134 9.44444C25.1302 10.3284 24.53 11.0701 23.748 11.5392C24.5141 11.4475 25.2442 11.2443 25.9227 10.9427C25.4159 11.7023 24.7732 12.3695 24.0337 12.904Z" fill="white"/>
</svg>
