<svg width="33" height="34" viewBox="0 0 33 34" fill="none" xmlns="http://www.w3.org/2000/svg">
<path d="M16.5 0.0390625C7.38761 0.0390625 0 7.42634 0 16.5391C0 25.6518 7.38761 33.0391 16.5 33.0391C25.6124 33.0391 33 25.6518 33 16.5391C33 7.42634 25.6124 0.0390625 16.5 0.0390625ZM24.8697 18.3236C25.6387 19.0747 26.4523 19.7817 27.1427 20.6105C27.4486 20.9771 27.7369 21.3562 27.9563 21.7826C28.2696 22.3906 27.9867 23.0574 27.4425 23.0935L24.0621 23.0928C23.1891 23.1651 22.4944 22.8129 21.9086 22.2161C21.4411 21.7404 21.0072 21.2323 20.5569 20.7404C20.3729 20.5386 20.1791 20.3485 19.9482 20.1989C19.4874 19.8992 19.087 19.991 18.823 20.4724C18.5539 20.9622 18.4925 21.5051 18.4668 22.0503C18.43 22.8474 18.1897 23.0557 17.3899 23.0931C15.681 23.1732 14.0595 22.9139 12.5525 22.0523C11.223 21.2924 10.194 20.2199 9.29739 19.0055C7.55135 16.6383 6.21413 14.0402 5.01262 11.3674C4.74221 10.7655 4.94004 10.4434 5.60409 10.4309C6.70736 10.4097 7.81062 10.4124 8.91388 10.4299C9.36288 10.437 9.65997 10.6939 9.83248 11.1176C10.4287 12.5845 11.1596 13.9801 12.0755 15.2744C12.3196 15.6191 12.5687 15.9628 12.9235 16.2062C13.3151 16.4749 13.6136 16.3861 13.7982 15.9489C13.9164 15.6711 13.9674 15.374 13.993 15.0763C14.0808 14.0564 14.0913 13.0368 13.9393 12.021C13.8448 11.3853 13.4873 10.9748 12.8536 10.8546C12.5309 10.7935 12.5781 10.674 12.7351 10.4897C13.0076 10.171 13.2628 9.97383 13.7729 9.97383L17.5921 9.97316C18.1941 10.0913 18.3291 10.3614 18.4108 10.9677L18.4142 15.212C18.4071 15.4466 18.532 16.142 18.9533 16.2957C19.2909 16.4071 19.5137 16.1363 19.7156 15.9226C20.6315 14.9507 21.2841 13.8035 21.8685 12.6162C22.1264 12.0926 22.3488 11.5507 22.5649 11.0079C22.7256 10.6065 22.9754 10.409 23.4285 10.4157L27.1063 10.4201C27.2146 10.4201 27.3247 10.4211 27.432 10.4397C28.0519 10.5457 28.2217 10.8124 28.0299 11.4171C27.7281 12.3671 27.1417 13.1584 26.5685 13.9517C25.954 14.8011 25.2988 15.6208 24.6904 16.4739C24.1314 17.2538 24.1756 17.6464 24.8697 18.3236Z" fill="white"/>
</svg>
